G04 DipTrace 4.1.0.0*
G04 BottomPaste.gbr*
%MOIN*%
G04 #@! TF.FileFunction,Paste,Bot*
G04 #@! TF.Part,Single*
%ADD24R,0.062X0.042*%
%ADD25R,0.042X0.062*%
%ADD58R,0.059055X0.007874*%
%ADD60R,0.007874X0.059055*%
%ADD62R,0.124016X0.080709*%
%ADD64R,0.033465X0.080709*%
%ADD66R,0.019685X0.074803*%
%ADD68R,0.022063X0.036063*%
%ADD70R,0.036063X0.022063*%
%ADD79R,0.055118X0.066929*%
%ADD85R,0.038063X0.058063*%
%FSLAX26Y26*%
G04*
G70*
G90*
G75*
G01*
G04 BotPaste*
%LPD*%
D24*
X4208888Y560744D3*
X4208892Y476744D3*
D25*
X3582041Y1440062D3*
X3498041Y1440059D3*
D24*
X4398819Y560744D3*
Y476744D3*
D25*
X4087909Y518588D3*
X4003909Y518585D3*
X3672883Y1440059D3*
X3756883Y1440061D3*
X4316449Y729266D3*
X4400449D3*
D24*
X3922289Y607169D3*
X3922280Y691169D3*
X3848921Y1086657D3*
X3848930Y1002657D3*
D25*
X4361079Y1114455D3*
X4277079Y1114451D3*
D79*
X1017262Y632878D3*
X882231Y632872D3*
X3286062Y1689387D3*
X3151030D3*
X2813635D3*
X2678604D3*
X2342194D3*
X2207163D3*
X1869343D3*
X1734311D3*
X1397324Y1690638D3*
X1262293D3*
X924470D3*
X789438D3*
D70*
X890920Y787471D3*
X890915Y862274D3*
X981469Y824878D3*
D68*
X1444929Y1249709D3*
X1370126D3*
X1407528Y1340260D3*
D25*
X4003909Y607169D3*
X4087909D3*
X974466Y717880D3*
X890466Y717871D3*
X4487860Y853626D3*
X4403860D3*
D85*
X1490803Y1414984D3*
X1406803D3*
X1587803Y1250985D3*
X1503803Y1250983D3*
D24*
X4458961Y1386852D3*
Y1470852D3*
X4378961Y1386852D3*
Y1470852D3*
X4538961Y1386852D3*
Y1470852D3*
D66*
X3577862Y775516D3*
X3527862D3*
X3477862D3*
X3427862D3*
X3377862D3*
X3327862D3*
X3277862D3*
X3227862D3*
Y1011736D3*
X3277862D3*
X3327862D3*
X3377862D3*
X3427862D3*
X3477862D3*
X3527862D3*
X3577862D3*
X3137862Y775516D3*
X3087862D3*
X3037862D3*
X2987862D3*
X2937862D3*
X2887862D3*
X2837862D3*
X2787862D3*
Y1011736D3*
X2837862D3*
X2887862D3*
X2937862D3*
X2987862D3*
X3037862D3*
X3087862D3*
X3137862D3*
X2697862Y775516D3*
X2647862D3*
X2597862D3*
X2547862D3*
X2497862D3*
X2447862D3*
X2397862D3*
X2347862D3*
Y1011736D3*
X2397862D3*
X2447862D3*
X2497862D3*
X2547862D3*
X2597862D3*
X2647862D3*
X2697862D3*
X2257862Y775516D3*
X2207862D3*
X2157862D3*
X2107862D3*
X2057862D3*
X2007862D3*
X1957862D3*
X1907862D3*
Y1011736D3*
X1957862D3*
X2007862D3*
X2057862D3*
X2107862D3*
X2157862D3*
X2207862D3*
X2257862D3*
X1817862Y775516D3*
X1767862D3*
X1717862D3*
X1667862D3*
X1617862D3*
X1567862D3*
X1517862D3*
X1467862D3*
Y1011736D3*
X1517862D3*
X1567862D3*
X1617862D3*
X1667862D3*
X1717862D3*
X1767862D3*
X1817862D3*
D64*
X3763315Y1541214D3*
X3672764D3*
X3582213D3*
D62*
X3672764Y1769560D3*
D60*
X4205890Y732563D3*
X4186205D3*
X4166520D3*
X4146835D3*
X4127150D3*
X4107465D3*
X4087780D3*
X4068094D3*
X4048409D3*
X4028724D3*
X4009039D3*
X3989354D3*
D58*
X3932268Y789650D3*
Y809335D3*
Y829020D3*
Y848705D3*
Y868390D3*
Y888075D3*
Y907760D3*
Y927445D3*
Y947130D3*
Y966815D3*
Y986500D3*
Y1006185D3*
D60*
X3989354Y1063272D3*
X4009039D3*
X4028724D3*
X4048409D3*
X4068094D3*
X4087780D3*
X4107465D3*
X4127150D3*
X4146835D3*
X4166520D3*
X4186205D3*
X4205890D3*
D58*
X4262976Y1006185D3*
Y986500D3*
Y966815D3*
Y947130D3*
Y927445D3*
Y907760D3*
Y888075D3*
Y868390D3*
Y848705D3*
Y829020D3*
Y809335D3*
Y789650D3*
M02*
