M48
INCH
T01C0.012
T02C0.0315
T03C0.032
T04C0.0354
T05C0.0362
T06C0.0394
T07C0.04
T08C0.05
T09C0.0906
T10C0.1181
%
T01
X+036358Y+005507
X+036904Y+005231
X+037168Y+006034
X+037998Y+006290
X+038306Y+007309
X+037687Y+008336
X+038318Y+009098
X+037688Y+009445
X+036902Y+009057
X+036633Y+009304
X+036358Y+009560
X+035784Y+010949
X+036902Y+011195
X+037171Y+010938
X+037439Y+010672
X+036643Y+011863
X+039060Y+010911
X+039322Y+010652
X+039594Y+010911
X+043338Y+009648
X+043584Y+009884
X+043584Y+009402
X+043338Y+009136
X+043584Y+008881
X+043338Y+008428
X+043584Y+008192
X+043609Y+010632
X+036899Y+007028
X+035779Y+007024
X+034774Y+008337
X+034284Y+009564
X+032274Y+010659
X+031379Y+008569
X+030379Y+008324
X+029874Y+009564
X+029129Y+010959
X+027874Y+010659
X+026149Y+010959
X+024699Y+011239
X+023474Y+010659
X+022579Y+010959
X+021079Y+009564
X+021579Y+008329
X+022579Y+008576
X+023204Y+007474
X+025979Y+008324
X+025979Y+009061
X+025478Y+009564
X+026974Y+008299
X+027604Y+007474
X+032004Y+007474
X+031515Y+016386
X+026791Y+016391
X+022067Y+016391
X+017332Y+016401
X+015879Y+013107
X+014684Y+010659
X+013548Y+009308
X+013808Y+009058
X+013298Y+008582
X+013038Y+008328
X+012528Y+008818
X+012788Y+009558
X+012224Y+010659
X+011704Y+010959
X+010988Y+007638
X+014404Y+007474
X+017179Y+007194
X+018804Y+007474
X+018174Y+008824
X+016679Y+009564
X+018179Y+010959
X+019074Y+010664
X+012618Y+016403
X+007884Y+016413
T02
X+034838Y+015408
X+033838Y+015408
X+038612Y+015411
X+039612Y+015411
T03
X+042093Y+006272
X+043993Y+006273
T04
X+015988Y+014150
X+012988Y+014150
T05
X+043792Y+016449
X+043792Y+015662
X+042807Y+015662
X+042807Y+016449
T06
X+007997Y+005529
X+010997Y+005529
X+010997Y+008529
X+010997Y+010529
X+010997Y+012529
X+007997Y+012529
X+007997Y+010529
X+007997Y+008529
T07
X+033299Y+018911
X+031527Y+018911
X+028574Y+018911
X+026803Y+018911
X+023850Y+018911
X+022078Y+018911
X+019126Y+018911
X+017354Y+018911
X+014401Y+018924
X+012630Y+018924
X+009677Y+018924
X+007905Y+018924
X+018252Y+012436
X+019252Y+012436
X+020236Y+012436
X+021236Y+012436
X+022252Y+012436
X+023252Y+012436
X+024236Y+012436
X+025236Y+012436
X+026236Y+012436
X+027236Y+012436
X+028236Y+012436
X+029236Y+012436
X+030236Y+012436
X+031236Y+012436
X+032236Y+012436
X+032236Y+005436
X+031236Y+005436
X+030236Y+005436
X+029236Y+005436
X+028236Y+005436
X+027236Y+005436
X+026236Y+005436
X+025236Y+005436
X+024236Y+005436
X+023252Y+005436
X+022252Y+005436
X+021236Y+005436
X+020236Y+005436
X+019252Y+005436
X+018252Y+005436
X+012725Y+005509
X+012725Y+006509
X+045012Y+009645
X+045012Y+010645
X+045012Y+011645
X+045012Y+012645
T08
X+031035Y+017927
X+029067Y+017927
X+026311Y+017927
X+024342Y+017927
X+021586Y+017927
X+019618Y+017927
X+016862Y+017927
X+014894Y+017939
X+012137Y+017939
X+010169Y+017939
X+007413Y+017939
X+033791Y+017927
T09
X+045670Y+017516
X+040930Y+017516
T10
X+005512Y+005512
X+005512Y+018504
X+047441Y+018504
X+047441Y+005512
T00
M30
