G04 DipTrace 4.1.0.0*
G04 TopDimension.gbr*
%MOIN*%
G04 #@! TF.FileFunction,Drawing,Top*
G04 #@! TF.Part,Single*
%ADD15C,0.001378*%
%ADD91C,0.006176*%
%FSLAX26Y26*%
G04*
G70*
G90*
G75*
G01*
G04 TopDimension*
%LPD*%
X741594Y1990638D2*
D15*
Y2181303D1*
X1214035Y1990638D2*
Y2181303D1*
X977815Y2161618D2*
X780965D1*
G36*
X741594D2*
X780965Y2169492D1*
Y2153744D1*
X741594Y2161618D1*
G37*
X977815D2*
D15*
X1174665D1*
G36*
X1214035D2*
X1174665Y2153744D1*
Y2169492D1*
X1214035Y2161618D1*
G37*
Y1990638D2*
D15*
Y2181303D1*
X1686467Y1989387D2*
Y2181303D1*
X1450251Y2161618D2*
X1253406D1*
G36*
X1214035D2*
X1253406Y2169492D1*
Y2153744D1*
X1214035Y2161618D1*
G37*
X1450251D2*
D15*
X1647097D1*
G36*
X1686467D2*
X1647097Y2153744D1*
Y2169492D1*
X1686467Y2161618D1*
G37*
Y1989387D2*
D15*
Y2181303D1*
X2158908Y1989387D2*
Y2181303D1*
X1922688Y2161618D2*
X1725837D1*
G36*
X1686467D2*
X1725837Y2169492D1*
Y2153744D1*
X1686467Y2161618D1*
G37*
X1922688D2*
D15*
X2119538D1*
G36*
X2158908D2*
X2119538Y2153744D1*
Y2169492D1*
X2158908Y2161618D1*
G37*
Y1989387D2*
D15*
Y2181303D1*
X2631349Y1989387D2*
Y2181303D1*
X2395129Y2161618D2*
X2198278D1*
G36*
X2158908D2*
X2198278Y2169492D1*
Y2153744D1*
X2158908Y2161618D1*
G37*
X2395129D2*
D15*
X2591979D1*
G36*
X2631349D2*
X2591979Y2153744D1*
Y2169492D1*
X2631349Y2161618D1*
G37*
Y1989387D2*
D15*
Y2181303D1*
X3103774Y1989387D2*
Y2181303D1*
X2867562Y2161618D2*
X2670719D1*
G36*
X2631349D2*
X2670719Y2169492D1*
Y2153744D1*
X2631349Y2161618D1*
G37*
X2867562D2*
D15*
X3064404D1*
G36*
X3103774D2*
X3064404Y2153744D1*
Y2169492D1*
X3103774Y2161618D1*
G37*
Y1989387D2*
D15*
Y2181303D1*
X4088031Y2161631D2*
Y2141933D1*
X3595903Y2161618D2*
X3143144D1*
G36*
X3103774D2*
X3143144Y2169492D1*
Y2153744D1*
X3103774Y2161618D1*
G37*
X3595903D2*
D15*
X4048661D1*
G36*
X4088031D2*
X4048661Y2153744D1*
Y2169492D1*
X4088031Y2161618D1*
G37*
X393701Y393701D2*
D15*
Y281972D1*
X4901575Y393701D2*
Y281972D1*
X2647638Y301657D2*
X433071D1*
G36*
X393701D2*
X433071Y309531D1*
Y293783D1*
X393701Y301657D1*
G37*
X2647638D2*
D15*
X4862205D1*
G36*
X4901575D2*
X4862205Y293783D1*
Y309531D1*
X4901575Y301657D1*
G37*
Y2007874D2*
D15*
X4980315D1*
X4901575Y393701D2*
X4980315D1*
X4960630Y1200787D2*
Y1968504D1*
G36*
Y2007874D2*
X4968504Y1968504D1*
X4952756D1*
X4960630Y2007874D1*
G37*
Y1200787D2*
D15*
Y433071D1*
G36*
Y393701D2*
X4952756Y433071D1*
X4968504D1*
X4960630Y393701D1*
G37*
X956532Y2206327D2*
D91*
X960379Y2208273D1*
X966127Y2213977D1*
Y2173829D1*
X980424Y2204426D2*
Y2206327D1*
X982325Y2210174D1*
X984227Y2212075D1*
X988073Y2213977D1*
X995723D1*
X999525Y2212075D1*
X1001426Y2210174D1*
X1003372Y2206327D1*
Y2202525D1*
X1001426Y2198678D1*
X997624Y2192974D1*
X978479Y2173829D1*
X1005273D1*
X1428969Y2206327D2*
X1432815Y2208273D1*
X1438564Y2213977D1*
Y2173829D1*
X1452860Y2204426D2*
Y2206327D1*
X1454762Y2210174D1*
X1456663Y2212075D1*
X1460510Y2213977D1*
X1468159D1*
X1471962Y2212075D1*
X1473863Y2210174D1*
X1475808Y2206327D1*
Y2202525D1*
X1473863Y2198678D1*
X1470060Y2192974D1*
X1450915Y2173829D1*
X1477710D1*
X1901405Y2206327D2*
X1905252Y2208273D1*
X1911000Y2213977D1*
Y2173829D1*
X1925297Y2204426D2*
Y2206327D1*
X1927198Y2210174D1*
X1929099Y2212075D1*
X1932946Y2213977D1*
X1940595D1*
X1944398Y2212075D1*
X1946299Y2210174D1*
X1948245Y2206327D1*
Y2202525D1*
X1946299Y2198678D1*
X1942497Y2192974D1*
X1923351Y2173829D1*
X1950146D1*
X2373846Y2206327D2*
X2377693Y2208273D1*
X2383441Y2213977D1*
Y2173829D1*
X2397738Y2204426D2*
Y2206327D1*
X2399639Y2210174D1*
X2401540Y2212075D1*
X2405387Y2213977D1*
X2413036D1*
X2416839Y2212075D1*
X2418740Y2210174D1*
X2420686Y2206327D1*
Y2202525D1*
X2418740Y2198678D1*
X2414938Y2192974D1*
X2395792Y2173829D1*
X2422587D1*
X2846279Y2206327D2*
X2850126Y2208273D1*
X2855874Y2213977D1*
Y2173829D1*
X2870171Y2204426D2*
Y2206327D1*
X2872072Y2210174D1*
X2873973Y2212075D1*
X2877820Y2213977D1*
X2885469D1*
X2889272Y2212075D1*
X2891173Y2210174D1*
X2893119Y2206327D1*
Y2202525D1*
X2891173Y2198678D1*
X2887371Y2192974D1*
X2868225Y2173829D1*
X2895020D1*
X3567966Y2204426D2*
Y2206327D1*
X3569867Y2210174D1*
X3571768Y2212075D1*
X3575615Y2213977D1*
X3583264D1*
X3587067Y2212075D1*
X3588968Y2210174D1*
X3590914Y2206327D1*
Y2202525D1*
X3588968Y2198678D1*
X3585166Y2192974D1*
X3566020Y2173829D1*
X3592815D1*
X3628114Y2213977D2*
X3609013D1*
X3607112Y2196777D1*
X3609013Y2198678D1*
X3614761Y2200624D1*
X3620465D1*
X3626213Y2198678D1*
X3630060Y2194876D1*
X3631961Y2189127D1*
Y2185325D1*
X3630060Y2179577D1*
X3626213Y2175730D1*
X3620465Y2173829D1*
X3614761D1*
X3609013Y2175730D1*
X3607112Y2177676D1*
X3605166Y2181478D1*
X2586759Y346367D2*
X2590606Y348312D1*
X2596354Y354016D1*
Y313868D1*
X2608706Y346367D2*
X2612552Y348312D1*
X2618300Y354016D1*
Y313868D1*
X2649797D2*
Y354016D1*
X2630652Y327266D1*
X2659348D1*
X2673600Y317715D2*
X2671699Y315770D1*
X2673600Y313868D1*
X2675546Y315770D1*
X2673600Y317715D1*
X2710845Y354016D2*
X2691744D1*
X2689843Y336816D1*
X2691744Y338717D1*
X2697492Y340663D1*
X2703196D1*
X2708944Y338717D1*
X2712791Y334915D1*
X2714692Y329167D1*
Y325364D1*
X2712791Y319616D1*
X2708944Y315770D1*
X2703196Y313868D1*
X2697492D1*
X2691744Y315770D1*
X2689843Y317715D1*
X2687897Y321518D1*
X4972841Y1203875D2*
X5012988D1*
X4986238Y1223021D1*
Y1194325D1*
X5005339Y1181973D2*
X5007285Y1178127D1*
X5012988Y1172378D1*
X4972841D1*
M02*
